<?xml version="1.0" encoding="UTF-8"?>
<svg width="76.793mm" height="116.16mm" version="1.1" viewBox="0 0 76.793 116.16" xmlns="http://www.w3.org/2000/svg">
 <g transform="translate(-66.672 -70.467)">
  <ellipse cx="105.07" cy="141.79" rx="38.396" ry="42.362" fill="#520" stroke-width=".37531"/>
  <ellipse cx="97.416" cy="127.32" rx="4.4112" ry="3.4998" fill="#fca" stroke-width=".26458"/>
  <ellipse cx="112.49" cy="127.57" rx="4.4112" ry="3.4998" fill="#fca" stroke-width=".26458"/>
  <path d="m105.02 130.47c1.3174-0.01 2.7663 0.24244 4.3098 0.62044 1.5434 0.378 3.1813 0.88196 4.9137 1.4804 1.7324 0.59848 3.5593 1.2914 5.2917 2.2364 1.7324 0.945 3.3703 2.1419 5.3547 3.4018 1.9844 1.2599 4.3152 2.5828 5.9688 3.7325 1.6536 1.1497 2.63 2.1262 3.4826 3.2456s1.5814 2.3817 2.2112 3.4726c0.62986 1.091 1.1608 2.0106 1.4262 3.1906 0.26538 1.18 0.26538 2.6203 0.26538 3.876 0 1.2557 0 2.3266-0.14704 3.4107-0.14703 1.0841-0.44104 2.1814-0.58803 3.3153-0.14698 1.134-0.14698 2.3045-0.71388 3.8716s-1.7006 3.5307-2.8168 5.4641c-1.1162 1.9334-2.215 3.8364-3.5944 5.2672s-3.0398 2.3893-4.8914 3.4584c-1.8516 1.069-3.8944 2.2484-5.7661 3.066s-3.5722 1.2732-5.2417 1.7206c-1.6695 0.44735-3.3079 0.88635-4.9966 1.1059s-3.4276 0.21953-5.1475 0.21953c-1.7199 0-3.4208 0-5.1612-0.23843s-3.5203-0.71535-5.0002-1.1119c-1.4799-0.39653-2.6596-0.71263-4.2877-1.4701-1.6281-0.75745-3.7045-1.9563-5.4509-3.2637s-3.1624-2.7235-4.5162-4.0773c-1.3538-1.3538-2.6452-2.6452-3.7669-4.1152s-2.0736-3.1188-2.8122-4.9232c-0.73862-1.8045-1.2638-3.7646-1.5265-5.9302-0.26266-2.1656-0.26266-4.5364-0.076-6.4186 0.18666-1.8822 0.56002-3.2756 1.3016-4.9335 0.74159-1.6579 1.8514-3.5801 3.4331-5.568s3.6352-4.0414 5.7979-5.3726c2.1628-1.3312 4.4345-1.9399 6.4828-2.771 2.0482-0.83113 3.873-1.8846 5.592-2.6275 1.7191-0.7429 3.3323-1.1752 4.4781-1.5871 1.1458-0.41196 1.8241-0.8036 2.7563-1.135s2.118-0.60258 3.4354-0.61212z" fill="#f95"/>
  <g fill="#2b1100" stroke-width=".26458">
   <ellipse cx="99.502" cy="139.74" rx="2.7403" ry="1.8899"/>
   <ellipse cx="110.83" cy="139.89" rx="2.6458" ry="1.9844"/>
   <ellipse cx="97.612" cy="128.13" rx="2.7403" ry="2.2679"/>
   <ellipse cx="112.35" cy="128.32" rx="2.7403" ry="2.2679"/>
  </g>
  <path d="m73.833 154.28 3.2741 3.675 10.023-0.40091 8.9535-1.2027 9.889-0.13363h8.6863l5.7463 1.2027 7.0826 0.93544 4.9445-0.13363 3.8754-2.5391-0.53454-1.3364-6.2808 0.26727-11.626-0.93544-8.8199 0.26727-10.29 0.13363-7.8845 0.4009-9.2208 1.2027-3.6081-0.26727z" fill="#ffb380"/>
  <path d="m73.599 155.45 2.94 3.0736 4.7106-0.10023 5.1176-0.14648 10.857-1.1339 10.217-0.39002 6.8154 0.0668 1.2027 0.0668 3.842 0.7684 3.5413 0.63476 1.3029 0.13364 2.1446 0.46773 3.26 0.0472 3.449 0.0472 3.2128-2.2678 0.42522 1.3229-2.3151 1.4647-1.9371 0.61421-6.0004-0.23623-13.654 0.28348-10.583 0.66146-6.8665 0.0674-6.6817 0.53454-6.8154-0.4009h-3.7418l-2.1382-0.40091-1.6036-2.0045z" fill="#ffb380"/>
  <path d="m86.061 103.83 3.6081 2.6727 3.7418 2.6727 4.009 2.4054 2.8063 1.6036 4.5436 0.53454 5.6127-0.80181 4.8109-3.3409 3.7418-2.4054 3.0736-2.6727 3.7418 2.94 4.1427 4.5436-3.8754 5.6127-2.1382 2.2718-4.009 2.2718-5.7463 0.80181-5.7463 0.40091-7.6172-0.53454-4.5436-0.13364-2.94 0.13364-3.8754-1.3364-2.6727-1.8709-2.2718-1.8709-2.5391-4.2763-2.2718-2.1382z" fill="#f95"/>
  <path d="m85.059 119.2 0.4009 5.2118 1.2695 4.8109 2.8063 5.4122-0.26727-5.0113v-1.4032l1.6704-2.7395 1.5368-1.1359 0.80181-1.5368-3.8754-1.3364-2.6727-1.8709-2.2718-1.8709z" fill="#2b1100"/>
  <path d="m112.59 123.21 3.7418 0.20045 1.7372 0.73499 1.5368 1.47 0.60136 1.3363 0.46772 1.7373 0.13363 2.2718-0.13363 1.8709v1.4032l0.73499-1.9377 0.20045-1.6036 1.5368-1.6704 0.80181-1.1359 0.60136-4.1427 0.20045-1.6036v-1.8709l0.13364-1.3363-1.0023 0.93544-2.205 1.3364-1.8041 0.93544-1.8041 0.33409-1.47 0.13363-2.4722 0.33409z" fill="#2b1100"/>
  <path d="m76.974 125.88-1.6071-2.7836-1.8137-1.8137-1.9427 0.52056-1.1564 4.3158v8.0463l1.0369 1.796 0.51356 1.9166 0.67297 2.5116 2.6807 1.5477h1.6158l3.485-3.485-0.97459-3.6372-1.7468-6.5193z" fill="#f95"/>
  <path d="m133.37 125.88-1.6036 6.6817-1.6036 3.7418-1.3364 2.1382 2.94 2.1382 1.7373 1.7372 1.5075 0.87038 3.858-6.6822 0.86464-3.2269v-7.6656l-0.85212-3.1802-1.6863-0.97361-2.2427 0.60094-0.53962 2.0139z" fill="#f95"/>
  <path d="m75.713 127.08-0.9511-2.1563-1.0733-1.4049-1.1497 0.40324-0.68436 3.3431v6.233l0.61366 1.3913 0.70219 3.4302 1.5864 1.1989h0.95622l2.0624-2.6996-0.57676-2.8175-1.0338-5.0501z" fill="#fca"/>
  <path d="m134.9 128.11-0.74228 4.4647-0.74227 2.5003-0.61856 1.4287 1.3608 1.4287 0.80414 1.1608 0.6978 0.58159 1.7858-4.465 0.40022-2.1562v-5.1222l-0.39442-2.125-0.78057-0.65057-1.0381 0.40155-0.24978 1.3457z" fill="#fca"/>
 </g>
 <g transform="translate(-66.672 -70.467)">
  <path d="m77.242 117.72c0.0015-0.15034 0.0046-0.45129-0.35164-0.98584-0.35624-0.53454-1.072-1.3026-1.5636-2.2881s-0.75889-2.1881-0.91483-3.6136-0.20048-3.0736-0.22276-4.2763c-0.02228-1.2027-0.02228-1.96 0.11134-3.0291 0.13362-1.0691 0.40088-2.45 0.69042-3.8086s0.60135-2.695 1.0913-4.1204 1.1582-2.94 1.894-4.3932c0.73588-1.4532 1.5394-2.845 2.3412-4.2259s1.6019-2.7508 2.4474-3.9481c0.8455-1.1973 1.7364-2.2218 2.683-3.2352 0.9466-1.0134 1.9488-2.0157 2.7952-2.862 0.84636-0.84636 1.5368-1.5368 2.3498-2.1048s1.7484-1.0134 2.9066-1.548c1.1582-0.53454 2.5391-1.1582 3.8754-1.6482s2.6282-0.84635 3.9868-1.0245c1.3587-0.17816 2.7841-0.17816 4.2541-0.02222 1.47 0.15594 2.9845 0.46775 4.3209 0.91325 1.3364 0.4455 2.4945 1.0246 3.675 1.6259 1.1804 0.60136 2.3831 1.225 3.4968 1.9155 1.1136 0.69048 2.1381 1.4477 2.9845 2.205 0.84633 0.7573 1.5145 1.5145 2.2049 2.3609 0.69044 0.84637 1.4031 1.7818 2.1159 2.7841 0.71271 1.0023 1.4254 2.0713 2.1604 3.2072 0.735 1.1359 1.4922 2.3386 2.0713 3.4077s0.97996 2.0045 1.4477 3.185c0.46772 1.1805 1.0022 2.6059 1.4922 4.1204 0.48999 1.5145 0.93543 3.1181 1.2027 4.4322 0.26724 1.3141 0.35632 2.3386 0.42314 3.5413 0.0668 1.2027 0.11135 2.5836 0.0668 3.8531-0.0446 1.2695-0.1782 2.4277-0.31184 3.4076-0.13364 0.97999-0.26727 1.7818-0.46774 2.5167-0.20046 0.73496-0.46772 1.4031-0.79021 1.8462s-0.70031 0.6612-1.0987 0.82641c-0.39837 0.1652-0.81735 0.27747-1.3412-0.85598-0.52386-1.1334-1.1525-3.5129-2.3131-5.7494-1.1606-2.2366-2.8533-4.3301-5.8601-6.0675-3.0068-1.7374-7.3276-3.1182-11.938-3.7419-4.6105-0.62368-9.5103-0.49005-13.564 0.2672-4.0537 0.75726-7.2609 2.1381-9.6664 3.8532-2.4055 1.715-4.0091 3.7641-5.3232 6.0582-1.3141 2.2941-2.3386 4.8331-2.8508 6.1026-0.51224 1.2695-0.51224 1.2695-0.5107 1.1191z" fill="#a02c2c"/>
  <path d="m77.25 116.96c0.0092-0.90286 0.02762-2.7088 0.32028-4.6198 0.29267-1.911 0.85963-3.9268 1.6786-5.5648 0.81896-1.638 1.8899-2.8979 3.0238-4.1263 1.1339-1.2284 2.3309-2.4254 3.6853-3.4018 1.3545-0.97646 2.8664-1.7324 4.2523-2.3624 1.3859-0.62996 2.6458-1.1339 3.8743-1.5434 1.2284-0.40947 2.4254-0.72445 5.0397-0.88192 2.6144-0.15747 6.6461-0.15747 9.4495 5.4e-5 2.8033 0.15752 4.3782 0.4725 6.0476 0.9765 1.6694 0.504 3.4333 1.197 5.1027 2.2995 1.6694 1.1025 3.2443 2.6144 4.6932 4.1263 1.4489 1.5119 2.7718 3.0238 3.5592 5.2287s1.0393 5.1027 0.5984 5.1342c-0.44093 0.0315-1.5748-2.8033-3.4332-5.0712s-4.4411-3.9688-7.4965-5.0713c-3.0554-1.1025-6.583-1.6065-10.268-1.7955s-7.528-0.063-11.15 0.56693c-3.6224 0.62995-7.0241 1.7638-9.4495 3.1813-2.4255 1.4175-3.8743 3.1183-4.9138 4.5043-1.0395 1.386-1.6694 2.4569-2.3716 3.9584-0.70217 1.5015-1.4765 3.4334-1.8637 4.3994s-0.38716 0.96592-0.37795 0.0631z" fill="#782121"/>
  <path d="m77.241 117.87c1.4673-2.4359 2.6499-5.0679 4.402-7.3078 1.6466-2.1052 3.3699-4.3079 5.6696-5.6696 2.7103-1.6048 5.9694-2.0991 9.0714-2.6458 2.8599-0.50406 5.7904-0.64048 8.6935-0.56697 2.7262 0.069 5.4618 0.36491 8.1265 0.94494 2.1997 0.47881 4.415 1.0662 6.4256 2.0789 1.936 0.97508 3.7632 2.2427 5.2917 3.7798 0.92433 0.9295 1.5477 2.1175 2.2679 3.2128 0.73006 1.1104 1.3859 2.2679 2.0789 3.4018-0.25199-1.3859-0.50397-2.7718-0.75596-4.1577 0 0-0.52072-2.4281-0.94494-3.5908-0.45395-1.2442-0.90236-2.5342-1.7009-3.5908-1.2113-1.6027-2.7733-3.0044-4.5357-3.9687-1.7839-0.97616-3.8671-1.29-5.8586-1.7009-2.4871-0.51311-5.0235-0.81301-7.5595-0.94494-3.0833-0.1604-6.1934-0.16536-9.2604 0.18899-3.0071 0.34742-6.0559 0.80648-8.8824 1.8899-2.2399 0.85854-4.3093 2.1625-6.2366 3.5908-1.11 0.82263-2.2078 1.72-3.0238 2.8348-0.94865 1.296-1.6073 2.8114-2.0789 4.3467-0.77942 2.5377-1.1892 7.8748-1.1892 7.8748z" fill="#501616"/>
 </g>
 <g transform="translate(-66.672 -70.467)">
  <path d="m95.608 84.767 14.137-7.5841-0.23396 0.92716-12.125 6.6141 12.014 6.574 0.24422 0.80217z" fill="#fff"/>
  <path d="m121.02 84.912-22.814-7.5841 0.37756 0.92717 19.568 6.6141-19.389 6.574-0.39413 0.80217z" fill="#fff"/>
  <text transform="scale(.97753 1.023)" x="104.16222" y="85.011711" fill="#ffffff" font-family="sans-serif" font-size="6.9378px" stroke-width=".17344" style="line-height:1.25" xml:space="preserve"><tspan x="104.16222" y="85.011711" fill="#ffffff" stroke-width=".17344">@</tspan></text>
 </g>
</svg>
